<?xml version="1.0" encoding="UTF-8" standalone="no"?>
<svg
   xmlns:dc="http://purl.org/dc/elements/1.1/"
   xmlns:cc="http://creativecommons.org/ns#"
   xmlns:rdf="http://www.w3.org/1999/02/22-rdf-syntax-ns#"
   xmlns:svg="http://www.w3.org/2000/svg"
   xmlns="http://www.w3.org/2000/svg"
   xmlns:sodipodi="http://sodipodi.sourceforge.net/DTD/sodipodi-0.dtd"
   xmlns:inkscape="http://www.inkscape.org/namespaces/inkscape"
   version="1.2"
   viewBox="0 0 122.10133 116.74478"
   id="svg16"
   sodipodi:docname="goettingen_logo.svg"
   inkscape:version="0.92.3 (2405546, 2018-03-11)"
   width="122.10133"
   height="116.74477">
  <metadata
     id="metadata22">
    <rdf:RDF>
      <cc:Work
         rdf:about="">
        <dc:format>image/svg+xml</dc:format>
        <dc:type
           rdf:resource="http://purl.org/dc/dcmitype/StillImage" />
        <dc:title></dc:title>
      </cc:Work>
    </rdf:RDF>
  </metadata>
  <defs
     id="defs20" />
  <sodipodi:namedview
     pagecolor="#ffffff"
     bordercolor="#666666"
     borderopacity="1"
     objecttolerance="10"
     gridtolerance="10"
     guidetolerance="10"
     inkscape:pageopacity="0"
     inkscape:pageshadow="2"
     inkscape:window-width="1366"
     inkscape:window-height="768"
     id="namedview18"
     showgrid="false"
     inkscape:zoom="4.2510308"
     inkscape:cx="68.413083"
     inkscape:cy="81.002213"
     inkscape:window-x="410"
     inkscape:window-y="259"
     inkscape:window-maximized="0"
     inkscape:current-layer="svg16"
     fit-margin-top="13.7"
     fit-margin-left="15.2"
     fit-margin-right="13"
     fit-margin-bottom="15.1" />
  <path
     d="m 39.701335,98.503354 c -0.2,0.4 -0.2,0.6 -0.2,1 l -0.9,-0.4 c 0.5,-0.5 0.5,-0.6 0.7,-1.1 l 1.2,-2.9 -1.1,0.3 -0.2,-0.2 c 0.2,-0.1 1.9,-0.7 2.1,-0.8 z m 24.9,-1.9 -0.9,0.1 c -0.9,0.1 -1.2,0.3 -1.5,0.5 v -0.9 l 3.1,-0.3 -1.1,2.5 c 1.3,0.1 1.4,1.2 1.5,1.3 0,0.399996 -0.2,1.599996 -1.8,1.799996 -0.8,0.1 -1.1,0 -1.4,-0.1 l 0.4,-0.9 c 0.1,0.2 0.3,0.7 1.1,0.7 0.8,-0.1 1.2,-0.7 1.1,-1.3 0,-0.399996 -0.3,-0.699996 -0.6,-0.799996 -0.4,-0.1 -0.8,-0.1 -1.1,-0.1 z m -11.6,2.2 -0.8,-0.1 1.4,-2.5 -2.8,-0.3 h -0.6 l -0.1,0.8 c 0.4,-0.3 0.5,-0.4 1.8,-0.2 l 0.9,0.1 -1.1,2 -0.8,-0.1 h -0.5 l -0.1,0.3 1.1,0.1 -0.5,0.9 c -0.3,0.599996 -0.6,1.099996 -1,1.399996 l 1.1,0.1 v -0.3 c 0,-0.3 0.2,-0.7 0.6,-1.499996 l 0.3,-0.5 h 1 z m 24.1,-1.6 -0.8,0.2 0.5,-2.8 -2.7,0.6 c -0.2,0 -0.3,0.1 -0.4,0.1 h -0.2 l 0.1,0.9 c 0.3,-0.4 0.4,-0.5 1.6,-0.8 l 0.8,-0.2 -0.4,2.3 -0.8,0.2 c -0.1,0 -0.2,0 -0.3,0.1 h -0.2 v 0.3 l 1.1,-0.2 -0.2,1 c -0.1,0.6 -0.3,1.199996 -0.5,1.599996 l 1.1,-0.2 c 0,0 -0.1,-0.2 -0.1,-0.3 -0.1,-0.299996 0,-0.699996 0.1,-1.699996 l 0.4,-0.6 0.5,-0.1 c 0.1,0 0.2,0 0.3,-0.1 h 0.2 z"
     id="path2"
     inkscape:connector-curvature="0" />
  <path
     d="m 32.401335,50.403354 h -6 c 0,10.2 6.5,21.1 20.4,25.3 0.8,-1.7 1.7,-3.5 2.5,-5.4 -13.1,-3.6 -16.9,-13.6 -16.9,-19.9 z m 28.1,21.3 c -3,0 -5.8,-0.3 -8.2,-0.7 -1,2.3 -1.8,4.3 -2.4,5.6 3.2,0.7 6.7,1.1 10.6,1.1 1.8,0 3.6,-0.2 5.3,-0.5 -0.9,-1.8 -1.8,-3.7 -2.5,-5.7 -0.9,0.1 -1.9,0.2 -2.8,0.2 z"
     id="path4"
     inkscape:connector-curvature="0"
     style="fill:#c4cee1" />
  <g
     id="g10"
     style="fill:#004077"
     transform="translate(15.201335,13.703354)">
    <path
       d="m 52.5,66.9 c -2.2,0.5 -4.4,0.8 -6.8,0.8 -4.4,0.1 -8.7,-0.4 -12.9,-1.5 -1.1,2.1 -2.3,4 -3.4,5.8 5.3,1.5 10.8,2.3 16.4,2.2 3.7,-0.1 7.3,-0.6 10.6,-1.6 C 56,72.1 55.6,71.6 55.2,71 54.3,69.8 53.4,68.4 52.5,66.9 Z M 14.4,56.5 C 9.2,51.5 6.6,45.3 6.5,38.2 6.4,18.6 25.4,6.7 43.8,6.5 61.9,6.4 76.9,17.8 77,17.9 l 1.7,1.4 1.6,-7.8 C 76.1,8.6 61.3,-0.2 43.8,0 22.1,0.2 -0.2,14.6 0,38.3 0.1,47.1 3.5,55 9.9,61.2 c 4.4,4.3 10.1,7.6 16.6,9.9 1.1,-1.7 2.3,-3.6 3.4,-5.7 -6.1,-1.9 -11.5,-5 -15.5,-8.9 z"
       id="path6"
       inkscape:connector-curvature="0" />
    <path
       d="M 88.4,41.2 89.6,37 H 54.4 v 6.5 H 80.6 C 76.4,53.1 67.5,62.3 56,66 c 1.1,1.9 2.4,3.8 3.8,5.6 14.6,-5.3 24.9,-18 28.6,-30.4 z"
       id="path8"
       inkscape:connector-curvature="0" />
  </g>
  <path
     d="m 106.10133,25.703354 h -7.899995 l -0.5,2.4 c -3,15.7 -13.5,38.3 -30.9,42.8 0.8,1.8 1.7,3.6 2.6,5.4 18.5,-5.6 29.8,-27.9 33.599995,-44.7 h 0.1 v 43.9 h 6 v -49.8 z"
     id="path12"
     inkscape:connector-curvature="0"
     style="fill:#c4cee1" />
  <path
     d="m 95.001335,91.303354 c -0.9,-0.2 -1.3,1.6 0.1,1.8 0.6,0.3 0.4,1.3 -0.8,2.3 -1.2,1 -7,2.8 -11.5,-1 -4.5,-3.8 -9.2,-8.9 -12.3,-14.4 -2.4,-4.2 -5.2,-9.8 -6.8,-14.7 6.5,0.2 5.8,-2.8 5.8,-2.8 -1.1,1.9 -3.6,2.3 -6,2.1 -0.4,-1.3 -0.7,-2.5 -0.9,-3.6 -0.8,-5.3 -0.7,-10.6 -0.4,-11.7 0,0 -0.1,0.1 -0.4,0.3 v -0.2 c 0,0 -7.2,4.6 -15.4,-0.5 -8.2,-5.1 -6.3,-23.6 8,-23.5 2.8,-0.1 7.1,0.8 8.8,3.5 0,0 0.5,-0.9 1.7,-1.3 0,0 -1.2,0.1 -2,-0.3 -0.8,-0.4 -2,-2.6 -9,-2.6 -7,0 -14.4,5 -14.4,14.2 0,9 9.8,16 21.1,11.8 -1.8,1.7 -4.7,5.3 -7.4,12 -1.5,-0.1 -2.8,0.2 -2.8,1.4 0,1.4 0.8,1.8 1.6,1.8 -4.1,10.3 -8.2,18 -12.5,23 -3.9,4.6 -7.9,8.7 -15.8,7.7 -2.8,-0.4 -6.9,-4.4 -3.5,-8.8 0.4,-0.5 0.7,1.1 2.2,0.3 1.5,-0.8 -1,-2.9 -2.8,-0.8 -1.8,2.1 -3.7,9.7 7.5,10.4 11.2,0.7 19.7,-16.7 21.9,-21.2 1.1,-2.2 3.3,-7.7 5.6,-13.1 2.2,0.4 5.1,1.3 6.7,1.7 0.3,0 0.5,0.1 0.8,0.1 1.4,5.9 4.3,12.8 9,19.2 11.2,15 17,13.9 22.6,12.5 1.8,-0.9 4.6,-5 1.3,-5.6 z m -43.6,-27.1 c 0,-0.7 0.6,-0.9 1.6,-0.9 -0.1,0.2 -0.2,0.4 -0.2,0.6 -0.2,0.5 -0.4,1.1 -0.6,1.6 -0.6,-0.3 -0.8,-0.7 -0.8,-1.3 z m 6.5,-0.7 c -0.5,-0.1 -1.7,-0.5 -3.1,-0.7 2.4,-5.5 4.8,-10.6 6.2,-11.7 0,0 -0.7,4.9 0.6,11.7 l 0.3,1.5 c -1.8,-0.1 -3.5,-0.6 -4,-0.8 z"
     id="path14"
     inkscape:connector-curvature="0"
     sodipodi:nodetypes="ccssccccccccscccsssccsccccssscccccccscccscccccc" />
</svg>
